<svg xmlns="http://www.w3.org/2000/svg" viewBox="0 0 144 144"><defs><style>.cls-1{fill:none;stroke:#b20411;stroke-miterlimit:10;stroke-width:2px;}</style></defs><title>building5</title><g id="Layer_1" data-name="Layer 1"><rect class="cls-1" x="25.58" y="87.23" width="7.81" height="7.81"/><rect class="cls-1" x="25.58" y="104.05" width="7.81" height="7.81"/><rect class="cls-1" x="58.98" y="70.41" width="7.81" height="7.81"/><rect class="cls-1" x="58.98" y="87.23" width="7.81" height="7.81"/><rect class="cls-1" x="58.98" y="36.78" width="7.81" height="7.81"/><rect class="cls-1" x="58.98" y="53.59" width="7.81" height="7.81"/><rect class="cls-1" x="58.98" y="104.05" width="7.81" height="7.81"/><rect class="cls-1" x="110.62" y="70.41" width="7.81" height="7.81"/><rect class="cls-1" x="110.62" y="87.23" width="7.81" height="7.81"/><rect class="cls-1" x="110.62" y="104.05" width="7.81" height="7.81"/><rect class="cls-1" x="92.29" y="70.41" width="7.81" height="7.81"/><rect class="cls-1" x="92.29" y="87.23" width="7.81" height="7.81"/><rect class="cls-1" x="92.29" y="104.05" width="7.81" height="7.81"/></g><g id="Layer_2" data-name="Layer 2"><polyline class="cls-1" points="15.76 123.28 15.76 80.83 43.3 80.83 43.3 123.28"/><polyline class="cls-1" points="43.3 80.83 43.3 25.35 82.57 25.35 82.57 123.28"/><polyline class="cls-1" points="82.57 59.9 128.24 59.9 128.24 123.28"/><line class="cls-1" x1="8.5" y1="123.28" x2="135" y2="123.43"/></g></svg>