<?xml version="1.0" encoding="utf-8"?>
<!-- Generator: Adobe Illustrator 21.0.0, SVG Export Plug-In . SVG Version: 6.00 Build 0)  -->
<svg version="1.1" id="Layer_1" xmlns="http://www.w3.org/2000/svg" xmlns:xlink="http://www.w3.org/1999/xlink" x="0px" y="0px"
	 viewBox="0 0 108 108" style="enable-background:new 0 0 108 108;" xml:space="preserve">
<style type="text/css">
	.st0{fill:none;stroke:#B00411;stroke-miterlimit:10;}
</style>
<g>
	<path class="st0" d="M92.3,62.3v17.8c0,3.8-3.1,6.9-6.9,6.9H23.9c-3.8,0-6.9-3.1-6.9-6.9V62.3"/>
	<path class="st0" d="M62,63.9h26.6c2.7,0,4.9-2.2,4.9-4.9V36.7c0-2.7-2.2-4.9-4.9-4.9H72.4h-5.5H42.4h-5.5H20.7
		c-2.7,0-4.9,2.2-4.9,4.9V59c0,2.7,2.2,4.9,4.9,4.9h26.6"/>
	<path class="st0" d="M47.2,65.6V62c0-0.5,0.4-0.9,0.9-0.9l13,0c0.5,0,0.9,0.4,0.9,0.9v3.6c0,0.5-0.4,0.9-0.9,0.9h-13
		C47.6,66.5,47.2,66.1,47.2,65.6z"/>
	<path class="st0" d="M33.6,32c0-6.4,5-11.7,11-11.7h20.1c6.1,0,11,5.3,11,11.7"/>
</g>
</svg>
