<svg id="Layer_1" data-name="Layer 1" xmlns="http://www.w3.org/2000/svg" viewBox="0 0 144 144"><defs><style>.cls-1,.cls-2{fill:none;stroke-miterlimit:10;stroke-width:2px;}.cls-1{stroke:#b20411;}.cls-2{stroke:#b00411;}</style></defs><title>clipboardbuilding</title><g id="Layer_1-2" data-name="Layer 1"><rect class="cls-1" x="59.34" y="98.33" width="4.1" height="4.1"/><rect class="cls-1" x="59.34" y="107.16" width="4.1" height="4.1"/><rect class="cls-1" x="76.87" y="89.5" width="4.1" height="4.1"/><rect class="cls-1" x="76.87" y="98.33" width="4.1" height="4.1"/><rect class="cls-1" x="76.87" y="71.85" width="4.1" height="4.1"/><rect class="cls-1" x="76.87" y="80.67" width="4.1" height="4.1"/><rect class="cls-1" x="76.87" y="107.16" width="4.1" height="4.1"/><rect class="cls-1" x="103.97" y="89.5" width="4.1" height="4.1"/><rect class="cls-1" x="103.97" y="98.33" width="4.1" height="4.1"/><rect class="cls-1" x="103.97" y="107.16" width="4.1" height="4.1"/><rect class="cls-1" x="94.35" y="89.5" width="4.1" height="4.1"/><rect class="cls-1" x="94.35" y="98.33" width="4.1" height="4.1"/><rect class="cls-1" x="94.35" y="107.16" width="4.1" height="4.1"/></g><g id="Layer_2" data-name="Layer 2"><polyline class="cls-1" points="54.18 117.25 54.18 94.97 68.64 94.97 68.64 117.25"/><polyline class="cls-1" points="68.64 94.97 68.64 65.85 89.25 65.85 89.25 117.25"/><polyline class="cls-1" points="89.25 83.98 113.22 83.98 113.22 117.25"/><line class="cls-1" x1="50.37" y1="117.25" x2="116.77" y2="117.33"/></g><line class="cls-2" x1="26.46" y1="29.42" x2="64.4" y2="29.42"/><line class="cls-2" x1="26.46" y1="36.71" x2="64.4" y2="36.71"/><line class="cls-2" x1="26.46" y1="44.01" x2="64.4" y2="44.01"/><line class="cls-2" x1="26.46" y1="51.31" x2="64.4" y2="51.31"/><line class="cls-2" x1="26.46" y1="58.6" x2="64.4" y2="58.6"/><line class="cls-2" x1="26.46" y1="65.9" x2="64.4" y2="65.9"/><line class="cls-2" x1="26.46" y1="73.19" x2="64.4" y2="73.19"/><circle class="cls-2" cx="55.65" cy="11.18" r="2.19"/><polyline class="cls-2" points="95.04 83.98 95.04 15.56 74.11 15.56 71.95 20.08 55.99 20.08 55.65 20.08 55.21 20.08 54.96 20.08 38.91 20.08 36.75 15.56 16.25 15.56 16.25 111.86 53.46 111.86"/><path class="cls-2" d="M69.86,10.64l-.72-1h-7.9a5.82,5.82,0,0,0-5.59-4.26c-.15,0-.29,0-.44,0v0c-.14,0-.26.06-.4.08A5.81,5.81,0,0,0,50.05,9.6H41.71l-.72,1-4.32,4.77.07.15,2.16,4.52h33l2.16-4.52.07-.15Z"/></svg>