<?xml version="1.0" encoding="utf-8"?>
<!-- Generator: Adobe Illustrator 21.0.0, SVG Export Plug-In . SVG Version: 6.00 Build 0)  -->
<svg version="1.1" id="Layer_1" xmlns="http://www.w3.org/2000/svg" xmlns:xlink="http://www.w3.org/1999/xlink" x="0px" y="0px"
	 viewBox="0 0 108 108" style="enable-background:new 0 0 108 108;" xml:space="preserve">
<style type="text/css">
	.st0{fill:none;stroke:#B00411;stroke-miterlimit:10;}
</style>
<g>
	<g>
		<path class="st0" d="M89,51.5l-5.4,0.2c0,0.7,0,1.4,0,2.2C83,64.6,76.8,73.6,68,78.4c-0.2,0.1-0.5,0.2-0.7,0.4l0-5.4l-15.5,9.2
			l14.5,8.8c0,0,0.4-4.3,0.5-4.3l0.2-2.3c12.2-5,21.1-16.6,21.8-30.6C88.9,52.9,89.1,52.8,89,51.5z"/>
		<path class="st0" d="M36,82.2l2.7-4.7c-0.6-0.4-1.2-0.8-1.8-1.2c-8.8-6.1-13.3-16.1-12.7-26.1c0-0.3,0-0.5,0.1-0.8l4.6,2.9l0.3-18
			L14,42.1c0,0,3.4,2.6,3.4,2.7l1.8,1.4c-2.2,13,3.1,26.6,14.6,34.6C34.9,81.4,34.9,81.6,36,82.2z"/>
		<path class="st0" d="M39.9,18.8l2.2,5c0.7-0.3,1.3-0.5,2-0.8c10.1-3.4,20.9-1.1,28.6,5.3c0.2,0.2,0.4,0.4,0.6,0.5l-5.1,2l14.3,11
			L85.3,25c0,0-4.1,1.2-4.2,1.1l-2.2,0.7c-9.1-9.4-23.3-13.4-36.5-8.9C41.2,18.4,41.1,18.3,39.9,18.8z"/>
	</g>
	<g>
		<circle class="st0" cx="53.5" cy="52.5" r="10"/>
		<circle class="st0" cx="53.5" cy="52.5" r="15"/>
	</g>
</g>
</svg>
