<?xml version="1.0" encoding="utf-8"?>
<!-- Generator: Adobe Illustrator 21.0.0, SVG Export Plug-In . SVG Version: 6.00 Build 0)  -->
<svg version="1.1" id="Layer_1" xmlns="http://www.w3.org/2000/svg" xmlns:xlink="http://www.w3.org/1999/xlink" x="0px" y="0px"
	 viewBox="0 0 108 108" style="enable-background:new 0 0 108 108;" xml:space="preserve">
<style type="text/css">
	.st0{fill:none;stroke:#B00411;stroke-miterlimit:10;}
	.st1{fill:#B00411;}
</style>
<g>
	<g>
		<line class="st0" x1="32.7" y1="32.3" x2="61.2" y2="32.3"/>
		<line class="st0" x1="32.7" y1="37.8" x2="61.2" y2="37.8"/>
		<line class="st0" x1="32.7" y1="43.3" x2="61.2" y2="43.3"/>
		<line class="st0" x1="32.7" y1="48.8" x2="61.2" y2="48.8"/>
		<line class="st0" x1="32.7" y1="54.3" x2="61.2" y2="54.3"/>
		<line class="st0" x1="32.7" y1="59.7" x2="61.2" y2="59.7"/>
		<line class="st0" x1="32.7" y1="65.2" x2="61.2" y2="65.2"/>
	</g>
	<circle class="st0" cx="54.6" cy="18.7" r="1.6"/>
	<g>
		<polygon class="st0" points="68.5,21.9 66.8,25.3 54.8,25.3 54.6,25.3 54.3,25.3 54.1,25.3 42,25.3 40.4,21.9 25,21.9 25,94.3 
			84.2,94.3 84.2,21.9 		"/>
		<path class="st0" d="M65.3,18.2l-0.5-0.8h-5.9c-0.5-1.8-2.2-3.2-4.2-3.2c-0.1,0-0.2,0-0.3,0v0c-0.1,0-0.2,0-0.3,0.1
			c-1.7,0.2-3.1,1.5-3.6,3.1h-6.3l-0.5,0.8l-3.2,3.6l0.1,0.1l1.6,3.4h12.1h0.2h0.3h0.3h12l1.6-3.4l0.1-0.1L65.3,18.2z"/>
	</g>
</g>
</svg>
