<?xml version="1.0" encoding="utf-8"?>
<!-- Generator: Adobe Illustrator 21.0.0, SVG Export Plug-In . SVG Version: 6.00 Build 0)  -->
<svg version="1.1" id="Layer_1" xmlns="http://www.w3.org/2000/svg" xmlns:xlink="http://www.w3.org/1999/xlink" x="0px" y="0px"
	 viewBox="0 0 108 108" style="enable-background:new 0 0 108 108;" xml:space="preserve">
<style type="text/css">
	.st0{fill:none;stroke:#B00411;stroke-miterlimit:10;}
</style>
<path class="st0" d="M91.9,20H17.3c-3,0-5.4,2.3-5.4,5.1V69c0,2.8,2.4,5.1,5.4,5.1h27.2c1.2,0,2.1,0.9,2.1,2v1.7c0,1.1-1,2-2.1,2
	h-4.3c-1.2,0-2.1,0.9-2.1,2v4.9c0,1.1,1,2,2.1,2H69c1.2,0,2.1-0.9,2.1-2v-4.9c0-1.1-1-2-2.1-2h-4.3c-1.2,0-2.1-0.9-2.1-2V76
	c0-1.1,1-2,2.1-2h27.2c3,0,5.4-2.3,5.4-5.1V25C97.3,22.2,94.8,20,91.9,20z"/>
<path class="st0" d="M87.5,68.5H21.6c-1.6,0-3-1.3-3-3V29.1c0-1.6,1.4-3,3-3h65.9c1.7,0,3,1.4,3,3v36.4
	C90.5,67.2,89.2,68.5,87.5,68.5z"/>
</svg>
